<?xml version="1.0" encoding="utf-8"?>
<!-- Generator: Adobe Illustrator 19.2.1, SVG Export Plug-In . SVG Version: 6.00 Build 0)  -->
<svg version="1.1" id="レイヤー_1" xmlns="http://www.w3.org/2000/svg" xmlns:xlink="http://www.w3.org/1999/xlink" x="0px"
	 y="0px" viewBox="0 0 3393.6 3000" style="enable-background:new 0 0 3393.6 3000;" xml:space="preserve"
	 width="55px" height="55px">
<style type="text/css">
	.st0{fill:#ED6D46;}
	.st1{fill:#00AB84;}
	.st2{fill:#002F7B;}
	.st3{fill:#727171;}
</style>
<g>
	<path class="st0" d="M988.9,629c-7.4-22.1-20.1-39.9-29.3-45.7c-7.5-4.4-11-7.9-17.6-13.6c-0.8-8.6-3.8-18.8-14.2-29.2
		c-6.7-8.5-42.2-22.7-55.5-26.3c-13.2-3.7-58.2-8.5-80.9-7.5c0,0-22.7,3.8-35.7,5.4c-13.3,2.1-25.4,6.7-44.3,15.2
		c-19,8.5-38.5,22.7-54.7,34.8c-15.9,12.3-31,31.2-45,46.2c-14.2,15.2-27.2,33.7-37.5,43.3c-10.5,9.3-20,17.1-30.3,26.3
		c-10.3,9.5-22,31.7-28.8,47.6c-6.5,16.3-9.9,28.6-16.4,40.8c-6.7,12.3-4.8,25.5-7.6,34c-2.7,8.5-4.5,14-10.2,34.8
		c-5.7,20.8,3.3,45,8.9,55.4c5.7,10.3,40.8,36.8,48.4,51c7.2,12.9,16.6,34.6,30.7,50.6c14,16,36.3,25.6,43.8,31.3
		c7.4,5.5,21.7,11,32,13c10.3,1.7,15.9,0.3,26.2,2.7c10.3,3.1,21.5,0,36.8-4.4c15-4.8,23.5-5.8,23.5-5.8c24.5-5.5,33.8-14,43.3-23.2
		c9.3-9.5,21-28.9,31.9-38.9c10.5-9.5,24.4-15.9,33-21.2c8.5-5.8,37.7-26.6,52.5-38.8c4.1-3.4,9.2-5.8,12.6-9.6
		c9.1-10.5,14.3-23.1,17.6-28c4.8-6.5,23.7-31.9,28.3-39.5c4.7-7.6,9.2-20.7,12-27.5c3.1-6.5,10.5-23.4,16.1-38.4
		c5.7-15.3,14.2-63.9,14.2-71.5c0-7.4,0.8-19,0.8-41.5C993.7,643.1,991.2,636.1,988.9,629 M927,674.1c0,0-1,5.2-1.6,10.6
		c-0.6,5-1.3,15.9-1.3,21.1c0,5.2-0.3,11.2-3.3,13.2c-3.1,1.8-14.3,0.6-12.9-4.8c1.1-5,2-7.8,1.4-14.4c-0.3-8.8-11.3-21.4-14.4-26.1
		c-3.1-5-5.8-7.5-9.6-13.9c-8.5-10.5-26.9-16.3-33-18.1c-5.8-1.6-9.5-1.3-7.4-8.6c0.6-2.3-2.5-4.5-5.4-5.8c0,0-14.6-6.2-20.7-8.8
		c-6.2-2.1-16.1-4.7-21-8.5l-5.2-4c0,0-1.1,1-3-1.3c-3.4-1.7-5.2-8.1,0.7-7.8c5.8,0.6,14.2,0.9,19.5,3.1c5.1,2.1,16,2.4,21.8,5.8
		c5.8,3.4,12.9,6.2,18.4,5.9c6.1-0.6,10.2-0.7,16.3-0.6c0,0,5.5,1.3,8.6,2.5c3,1.3,8.9,3.7,8.9,3.7c10.8,5.4,32.9,20.7,37.1,30.2
		C924.9,656.1,927.9,667.6,927,674.1"/>
	<path class="st1" d="M129.4,1369.8c55.1-36.1,112.9-58.4,136.4-66.6c28-6.4,107.4-38.8,120.7-45.2c26.8-13.9,42.8-18.8,65.3-20.7
		c0,0,8.9-1.6,18.6-4.2c9.8-2.4,19.8-6.5,24.5-8.6c4.8-2,30.7-11.5,56.9-20.4c25.9-8.9,52.5-17,58.4-19.1
		c12-4.4,75.9-21.7,95.9-27.8c20.1-6.4,50.7-14.6,58.2-16.4c8.5-2.1,28.3-5.8,38-7.4c9.8-1.3,45.5-9.2,66.7-11.2
		c21.4-2.1,66.3-4.5,84.4-6.4c18.4-2,61-6.8,82.9-9.8c0,0,56.9-8.1,73.8-9.3c13.3-1.3,312.2-39.5,322.4-41.6
		c10.5-1.6,71.4-5.7,89.4-6.7c17.7-0.7,56.2-0.4,76.9,0.4c20.8,1,313.4,10.5,324.6,11.3c11.5,1,24.6-3,31.9-1.1
		c14.3,2.8,21.8,2.8,35,4c13.2,1,52.5,2.8,63.6,2.8c11.5,0,38.2,3.7,48.6,5.7c10.3,2,305.4,51.7,316.7,52.8
		c11.2,0.7,23.4,1.8,34.7,4.5c11.3,3,44,8.8,60.9,10.8c16.9,1.8,64.4,5.9,83.4,7.9c18.7,1.8,52.1,5.2,71.8,11.9
		c20.7,6.7,46.3,16.7,61.6,21.2c15.9,4.5,98.7,14.2,120.5,16.9c13.5,1.8,56.5,6.1,90.4,11c21.5,3.1,38,6.8,45.2,8.5
		c8.8,2.3,24.8,9.2,42.1,16.3c10.3,4,22,7.8,31.2,11.5c11.8,4.8,20.1,9.5,24.4,11c14,5.5,65.9,35.4,83.7,40.9
		c17.8,5.7,88.5,17.3,100.7,18.3c12.3,0.8,57.5,3.8,75.1,8.9c14.9,3.7,30.7,6.5,33.4,17.7c1.6,7.9,10.5,39.4,14.2,50.6
		c2,5.8,0.4,19.3-1.6,22.8c-1.8,4-12,18.4-16,20.4c-5.9,3.7-33.1,6.1-42.2,7.1c-8.5,1.7-46.6,8.5-54.1,10.5
		c-20.8,4.5-26.6,5.4-62.5-3.7c0,0-54.8-18.8-73.4-29c-21.1-11.2-57.2-30.5-68-34.6c-9.6-4-15.7-6.8-22.1-8.4
		c-6.9-2.4-19-4.4-15.2,0.7c3.7,6.4-0.9,14.2-15.9,15.3c-15,0.8-43.3-8.4-54.7-12c0,0-48.9-13.3-62.2-18.1
		c-10.5-3.7-32.9-8.1-47.3-10.2c-3.5-0.6-11.2-0.6-15.2-1.3c-11.5-1.6-27.3-1.3-38.8-2.1c-18.6-1.1-39.4-10.2-54.4-11.2
		c-15-0.9-24.9-3.5-41.1-4.8c-14.7-1-18.8-2.8-26.6-4c-4.7-0.6-8.2-1.7-12.7-1.7c-10.2,0-21.4,1.3-31,0c-13.3-2.7-29.3-11-42.1-17.8
		c-10.3-5.2-18.4-5.8-34.6-11.2c-6.7-1.4-11.8-5.9-19.1-6.9c-12.9-1.4-21-4-27.9-5c-7.5-1.3-24.9-1.3-36.7-1.8
		c-11.2-0.1-21.1-1.3-27.8-0.4c-8.8-0.7-18.3-5.8-29.6-6.2c0,0-291.1-37.5-312.6-37.5c-12.7,0-18.1,4.1-22.8,4.1
		c-3.1,0-7.4-2.3-11.6-2.8c-11-1.6-19.5-0.6-27.1-0.6c-7.8,0.1-25.5-4-33.1-3.1c-7.2,1.1-41.5-0.7-50.8,0.3
		c-9.3,1-23.7-2.7-38.7-1.8c-15.2,0.8-299-0.8-317,0c-17.8,0.8-22.7,5.2-31.2,4.1c-5.5,0.6-10.3-1.4-26.1-0.4c-16,0.7-71,5-85.3,6.8
		c-14.2,1.6-14.9,0.3-31.7,1.8c-17,1.8-301.4,27.3-313.6,30.9c-12.2,4-21.7,6.1-28.3,6.5c-10.3,0.9-13.2,5.8-22.4,5.8
		c-4.5,0-12.9,1-20.8,1.1c-8.8,0.1-17.1-0.7-20.4-0.1c-10.3,2-21,5.8-37.1,7.6c-15.9,1.8-20.5,0.1-33.7,2
		c-13.2,2.1-26.3,2.4-33.1,2.4c-6.5,0-18.4,0.8-23.4,0.1c-5.2-0.4-16.6,0.3-22.7,1.1c-4.7,0.8-14,4.5-24.9,6.1
		c-12.7,1.7-27.6,1.8-36.7,4c-17,3.7-48.2,6.2-65.6,9.8c-14,2.8-50.6,10.1-72.4,16.6c-21.7,6.7-55.7,16.9-73.5,20.8
		c-7.9,1.4-15.7,2.7-22.8,4.4c-8.9,2.4-17.3,5-25.8,6.5c-15,3.1-38.2,5.1-54.5,9.5c-16,4.4-48,10.6-63.2,16.1
		c-15.4,7.5-32.9,13-50.8,17.8c-17.7,4.7-44.9,11-68.6,17.6c-23.7,6.8-71.1,24.5-88.5,29.9c-23.8,6.9-94.3,41.8-120.5,58.9
		c-26.6,17-40.6,28.5-46.3,32.2c-5.7,3.8-13.9,13.2-27.9,12.2c-5.2-0.6-7.4-2.3-10.1-3.3c-2.7-0.6-7.1-1.3-10.3-1.8
		c-1.7-0.3-7.6-1.8-11-6.8c-3.3-5.2-2.4-14.7-1-18.3c2.3-6.2,5.1-10.5,7.1-13.7c2.8-4.4,5.8-11.5,7.8-14.3
		c2-2.8,15.3-25.1,21.4-32.6c5.9-7.5,29.5-30,36.4-34.7c8.9-7.9-0.9-11.8-5.7-9.2c-10.2,4.2-29.5,3.1-9.8-13.6
		c6.5-6.8,23.8-19.4,30-23.8c6.1-4,13.9-7.9,18.7-12C112.3,1380.8,129.4,1369.8,129.4,1369.8"/>
	<path class="st1" d="M595.6,1584.2c4.5-1,10.3,0.7,15,0c10.1-2.3,18-4.5,18-4.5c43.1-6.5,103-10.5,121.2-14.6
		c18.3-4,65.3-14.2,77.9-18.3c12.7-4,73.8-25.8,87-29c13.7-3,73.4-19.1,93.8-19.1c15,0,52.7-5.9,59.9-7.4c7.2-1.7,17.8-3.8,38.4-4.5
		c20.5-0.7,311-40.2,323.6-43.5c12.6-3.3,20.8-4.4,39.7-7.5c19.3-3.3,59.3-0.3,71.8-1c12.7-0.9,27.9-0.3,36-1
		c7.6-0.7,18.1,0.6,29.3,0c11-1,307.6,30.6,318.7,30c12-0.6,30,0.6,42.2,0.6c12.7-1.4,44,0.1,52.8,2.8c8.6,2.1,34.3,8.1,42.1,8.1
		c7.9,0,20,0.3,30.3,2.1c10.2,1.6,316-7.6,329.3-6.8c13.6,0.8,41.1,5.2,56.1,6.8c15.2,0.7,68.6,4.5,83,5.4
		c9.5,0.6,28.3,2.4,45.5,5.4c17.8,2.8,33.8,6.5,38.9,8.1c8.1,2.4,48.4,15.7,56.9,18.3c9.5,3,25.5,13.3,29.5,21.8
		c3.8,8.8,10.6,11.2,14.9,11.2c4.5,0,12.7-0.1,19,7.9c6.4,8.1,12.3,14.9,14.9,16.1c2.5,1.4,12.6,10.6,15.7,14.4
		c6.4,5,10.1,15.2,0.8,23.8c-3.8,4.4-9.8,17.4-6.1,24.4c0,0,10.2,12.2,2.3,23.2c-6.7,9.3-13.3,11-22.8,11.6
		c-5.5,0.3-23.4-0.9-39.5-3.3c-12-1.8-24.1-5.1-35.1-8.4c-12.6-3-19.7-5.4-24.2-8.4c-4.4-3.1-9.5-6.8-14.7-7.2
		c-5-0.9-11.9-4.2-18.4-5.2c-6.9-1-27.8-2.4-34.3-4c-4.5-1.3-20.4-9.3-33.9-14.6c-8.2-2.7-15.3-3.3-17.3-2.7c-3.3,1-4.7,5.1-2.1,8.2
		c3.5,6.8,8.4,19.5,2.4,28.2c-2.3,3.3-5.4,5.7-12.2,8.1c-6.8,1.4-13,1.8-22.8,1.8c-12.9-1.6-46.2,2.1-63,6.5
		c-13.9,3.5-26.1,7.9-36.1,13.2c-9.9,5.2-144.3,58.4-184.4,69.8c-40.4,11-112.7,30.6-128.5,30.6s-79.5,2.7-95.2,2.7
		c-15.6,0-72.8-0.7-85.4-2.7c-12.5-1.7-317-48.3-327.6-48.9c-10.6-0.8-16.3,2.7-25.6,1.6c-9.6-1-12.2-1.3-19.8-2.8
		c-7.5-1.1-12.7-1.6-25.5-1.3c-16.4,0.3-32.7,2.3-47.9,2.1c-15.3-0.4-25.8,1-37.7-2.1c-46.6-16.6-289.2-35.4-317-29
		c0,0-14.7,6.7-32.7,11.8c-22,7.5-52.7,8.1-71,6.2c0,0-18,0.3-27.5,1.3c-6.7,1.3-33.6,3.4-58.6,4.8c-9.5,0.4-18.3-0.6-26.3,0
		c-10.1,0.7-17.7,3.1-21,3.5c0,0-32.6,5.2-60.9,1.6c0,0-40.2-2.5-59.2-2.5h-58.2c-17,0-51.6,0.7-70.2,0.7c-19,0-24.1,0.3-34.8,1.8
		c-26.3,4-37-6.2-44.3-10.2c-13.7-7.5-23.2-17.7-23.2-27.8c0-4.4-1.6-17.6-4.1-31.2c-0.7-4-3.8-7.5-4-11.2
		c-1.3-14.4,3.3-27.6,5.5-29.3c1.8-1.3,2.5-2.1,3.7-4.1c2.4-4.2,3.3-8.1,6.1-11.6c4.4-5,9.5-11.2,17.6-13.5
		c8.1-2.5,18.6-0.8,21.7-2.7C585.7,1588.1,590.7,1584.9,595.6,1584.2"/>
	<rect x="1093.5" y="450.5" class="st2" width="349.7" height="1615.3"/>
	<rect x="2082.8" y="564.9" class="st2" width="349.5" height="1726.8"/>
	<rect x="1587.5" y="0.5" class="st2" width="349.7" height="1883.9"/>
	<g>
		<polygon class="st3" points="846.7,2639 846.7,2556.6 602.6,2556.6 602.6,2639 681.7,2639 681.7,2990.1 767.4,2990.1 767.4,2639 
					"/>
		<rect x="1565.9" y="2555.9" class="st3" width="87.3" height="435"/>
		<rect x="2846.4" y="2555.9" class="st3" width="87.4" height="435"/>
		<path class="st3" d="M1207.3,2556.6v-0.2h-67.6l-97,433.8h86.5l13.3-73h93.9l13.1,73.2h89.4l-101.1-433.8H1207.3z M1154.9,2848.1
			l34.8-192.8l34.4,192.8H1154.9z"/>
		<path class="st3" d="M2050.3,2732.1c-8.5-5.6-31.1-27.5-36.6-34.1c-6-7.5-7.6-14.3-9-25.9c-1-11.7,4.4-20.7,4.4-20.7
			c6.4-13.4,19.3-21.4,42.8-23.4c21.2,0,45.1,11.1,51.4,15.1c6.4,3.8,12.1,6.9,12.1,6.9v-81.2c-5.8-4.2-37.3-16.5-37.3-16.5
			c-17.6-4.6-35.4-4.8-43.3-4.8c-22.4,0-52.7,11.4-67.6,22.1c-16.3,10.4-29.3,27.4-36.2,40.3c-12.2,22.7-19.3,48.1-13.6,84.7
			c3,18.2,21.5,47.5,29.2,57c7.6,9.5,33.8,32.1,47.3,43.5c14.5,11.1,34.2,25,49.3,45.4c12.6,17.7,4.2,42.4,0.7,48.3
			c-15.8,25.2-36.3,23.2-55.4,22.3c-19.2-0.5-39.2-11.4-44.5-13.7c-3.1-1.3-0.5,0.9-20.8-11.6v90.8c0,0,18.1,9.5,28.3,13.3
			c10.1,3.8,36.7,8.6,48.4,9.4c11.6,0.8,36.9-1.5,51.9-6.1c24.9-9,49.4-27.4,66.8-53.5c9-13.5,14.3-31,16.5-41.1
			c1.6-9,3-27.6,3-27.6c0-21.9-10.7-59.3-31.9-87.3C2084.9,2757.9,2058.8,2737.3,2050.3,2732.1"/>
		<polygon class="st3" points="2482.5,2556.4 2396.9,2556.4 2396.9,2908.8 2396.9,2990.4 2574.8,2990.4 2574.8,2908.8 
			2482.5,2908.8 2482.5,2812.7 2564.6,2812.7 2564.6,2729 2482.5,2729 2482.5,2638.3 2575.4,2638.3 2575.4,2556.6 2482.5,2556.6 		
			"/>
	</g>
</g>
</svg>
